<mxfile host="Electron" modified="2023-06-05T07:43:04.172Z" agent="Mozilla/5.0 (Windows NT 10.0; Win64; x64) AppleWebKit/537.36 (KHTML, like Gecko) draw.io/21.2.1 Chrome/112.0.5615.87 Electron/24.1.2 Safari/537.36" etag="m4d2oyZFK5G2nMHw1KfN" version="21.2.1" type="device">
  <diagram name="페이지-1" id="LHgHrknePUQwzG0be8qI">
    <mxGraphModel dx="1098" dy="948" grid="1" gridSize="10" guides="1" tooltips="1" connect="1" arrows="1" fold="1" page="1" pageScale="1" pageWidth="827" pageHeight="1169" math="0" shadow="0">
      <root>
        <mxCell id="0" />
        <mxCell id="1" parent="0" />
        <mxCell id="KnyxLtObn3wam6PJHxm4-1" value="x배열에 값을&lt;br style=&quot;border-color: var(--border-color);&quot;&gt;오름차순으로 정렬" style="shape=process;whiteSpace=wrap;html=1;backgroundOutline=1;" vertex="1" parent="1">
          <mxGeometry x="120" y="100" width="130" height="60" as="geometry" />
        </mxCell>
        <mxCell id="KnyxLtObn3wam6PJHxm4-2" value="int i: 1, 1, nx-1" style="shape=loopLimit;whiteSpace=wrap;html=1;" vertex="1" parent="1">
          <mxGeometry x="113.75" y="250" width="142.5" height="50" as="geometry" />
        </mxCell>
        <mxCell id="KnyxLtObn3wam6PJHxm4-3" value="" style="shape=loopLimit;whiteSpace=wrap;html=1;rotation=-180;" vertex="1" parent="1">
          <mxGeometry x="110" y="490" width="150" height="50" as="geometry" />
        </mxCell>
        <mxCell id="KnyxLtObn3wam6PJHxm4-4" value="x[0]값 입력" style="shape=parallelogram;perimeter=parallelogramPerimeter;whiteSpace=wrap;html=1;fixedSize=1;" vertex="1" parent="1">
          <mxGeometry x="130" y="180" width="110" height="50" as="geometry" />
        </mxCell>
        <mxCell id="KnyxLtObn3wam6PJHxm4-6" value="x[i]값 입력" style="shape=parallelogram;perimeter=parallelogramPerimeter;whiteSpace=wrap;html=1;fixedSize=1;" vertex="1" parent="1">
          <mxGeometry x="130" y="320" width="110" height="50" as="geometry" />
        </mxCell>
        <mxCell id="KnyxLtObn3wam6PJHxm4-7" value="x[i]&amp;lt;x[i-1]" style="rhombus;whiteSpace=wrap;html=1;" vertex="1" parent="1">
          <mxGeometry x="130" y="390" width="110" height="70" as="geometry" />
        </mxCell>
        <mxCell id="KnyxLtObn3wam6PJHxm4-8" value="" style="endArrow=none;html=1;rounded=0;entryX=0.5;entryY=1;entryDx=0;entryDy=0;exitX=0.5;exitY=0;exitDx=0;exitDy=0;" edge="1" parent="1" source="KnyxLtObn3wam6PJHxm4-6" target="KnyxLtObn3wam6PJHxm4-2">
          <mxGeometry width="50" height="50" relative="1" as="geometry">
            <mxPoint x="390" y="510" as="sourcePoint" />
            <mxPoint x="440" y="460" as="targetPoint" />
          </mxGeometry>
        </mxCell>
        <mxCell id="KnyxLtObn3wam6PJHxm4-9" value="" style="endArrow=classic;html=1;rounded=0;exitX=0.5;exitY=1;exitDx=0;exitDy=0;entryX=0.5;entryY=0;entryDx=0;entryDy=0;" edge="1" parent="1" source="KnyxLtObn3wam6PJHxm4-1" target="KnyxLtObn3wam6PJHxm4-4">
          <mxGeometry width="50" height="50" relative="1" as="geometry">
            <mxPoint x="390" y="510" as="sourcePoint" />
            <mxPoint x="430" y="630" as="targetPoint" />
          </mxGeometry>
        </mxCell>
        <mxCell id="KnyxLtObn3wam6PJHxm4-10" value="" style="endArrow=classic;html=1;rounded=0;exitX=0.5;exitY=1;exitDx=0;exitDy=0;entryX=0.5;entryY=0;entryDx=0;entryDy=0;" edge="1" parent="1" source="KnyxLtObn3wam6PJHxm4-4" target="KnyxLtObn3wam6PJHxm4-2">
          <mxGeometry width="50" height="50" relative="1" as="geometry">
            <mxPoint x="195" y="170" as="sourcePoint" />
            <mxPoint x="195" y="190" as="targetPoint" />
          </mxGeometry>
        </mxCell>
        <mxCell id="KnyxLtObn3wam6PJHxm4-13" value="" style="endArrow=none;html=1;rounded=0;entryX=0.5;entryY=1;entryDx=0;entryDy=0;exitX=0.5;exitY=0;exitDx=0;exitDy=0;" edge="1" parent="1" source="KnyxLtObn3wam6PJHxm4-7" target="KnyxLtObn3wam6PJHxm4-6">
          <mxGeometry width="50" height="50" relative="1" as="geometry">
            <mxPoint x="390" y="510" as="sourcePoint" />
            <mxPoint x="440" y="460" as="targetPoint" />
          </mxGeometry>
        </mxCell>
        <mxCell id="KnyxLtObn3wam6PJHxm4-16" value="Y" style="endArrow=classic;html=1;rounded=0;entryX=0.5;entryY=1;entryDx=0;entryDy=0;exitX=0.5;exitY=1;exitDx=0;exitDy=0;" edge="1" parent="1" source="KnyxLtObn3wam6PJHxm4-7" target="KnyxLtObn3wam6PJHxm4-3">
          <mxGeometry width="50" height="50" relative="1" as="geometry">
            <mxPoint x="570" y="340" as="sourcePoint" />
            <mxPoint x="195" y="190" as="targetPoint" />
          </mxGeometry>
        </mxCell>
        <mxCell id="KnyxLtObn3wam6PJHxm4-18" value="" style="endArrow=classic;html=1;rounded=0;exitX=0;exitY=0.5;exitDx=0;exitDy=0;" edge="1" parent="1" source="KnyxLtObn3wam6PJHxm4-7">
          <mxGeometry width="50" height="50" relative="1" as="geometry">
            <mxPoint x="195" y="170" as="sourcePoint" />
            <mxPoint x="185" y="310" as="targetPoint" />
            <Array as="points">
              <mxPoint x="110" y="425" />
              <mxPoint x="110" y="310" />
            </Array>
          </mxGeometry>
        </mxCell>
        <mxCell id="KnyxLtObn3wam6PJHxm4-19" value="N" style="edgeLabel;html=1;align=center;verticalAlign=middle;resizable=0;points=[];" vertex="1" connectable="0" parent="KnyxLtObn3wam6PJHxm4-18">
          <mxGeometry x="-0.1238" y="2" relative="1" as="geometry">
            <mxPoint as="offset" />
          </mxGeometry>
        </mxCell>
      </root>
    </mxGraphModel>
  </diagram>
</mxfile>
